<?xml version="1.0"?><svg width="285" height="285" xmlns="http://www.w3.org/2000/svg">
 <title>warning_icon</title>
 <metadata id="metadata2395">image/svg+xml</metadata>
 <g>
  <title>Layer 1</title>
  <g id="layer1">
   <g fill="#ffd42a" id="g2387">
    <path fill="#ffd42a" stroke="#000000" stroke-width="6.831379" stroke-miterlimit="4" d="m33.331116,216.561844c-1.469753,2.785278 -3.202036,5.389359 -3.202198,8.446182l0.014521,1.277588c0,6.597565 5.251833,10.586014 11.289743,10.586014l195.093658,0c6.038391,0 11.238754,-4.944229 11.238754,-11.541794l-0.064102,-1.283264c0,-3.056839 -1.528137,-5.711243 -3.201706,-8.446228l-96.619873,-170.442616c-4.268829,-4.664425 -11.18959,-4.664425 -15.459076,0.000629l-99.089722,171.403488z" id="path2389"/>
   </g>
   <path fill="#000000" fill-rule="nonzero" stroke-width="2" stroke-linecap="round" stroke-linejoin="round" marker-start="none" marker-mid="none" marker-end="none" stroke-miterlimit="4" stroke-dasharray="4, 4" stroke-dashoffset="5" id="path2393" d="m156.64595,199.535583a15.393941,15.138305 0 1 1-30.787865,0a15.393941,15.138305 0 1 130.787865,0z"/>
   <path fill="#000000" fill-rule="nonzero" stroke-width="2" stroke-linecap="round" stroke-linejoin="round" marker-start="none" marker-mid="none" marker-end="none" stroke-miterlimit="4" stroke-dasharray="4, 4" stroke-dashoffset="5" d="m141.151779,94.357803c6.047684,0 15.433502,4.738441 15.433502,10.624283l-4.517105,61.170151c0,5.885864 -4.868713,10.624313 -10.916397,10.624313c-6.047684,0 -10.916397,-4.738449 -10.916397,-10.624313l-5.269974,-61.170151c0,-5.885841 10.138687,-10.624283 16.186371,-10.624283z" id="path2395"/>
  </g>
 </g>
</svg>